trial_4_IK.mot
nRows=6
nColumns=42

name trial_4_IK.mot
datacolumns 42
datarows 6
range 6.0000000000 6.0500000000
endheader
time	pelvis_tilt	pelvis_list	pelvis_rotation	pelvis_tx	pelvis_ty	pelvis_tz	hip_flexion_r	hip_adduction_r	hip_rotation_r	knee_angle_r	knee_vv_r	knee_rot_r	ankle_angle_r	subtalar_angle_r	mtp_angle_r	hip_flexion_l	hip_adduction_l	hip_rotation_l	knee_angle_l	knee_vv_l	knee_rot_l	ankle_angle_l	subtalar_angle_l	mtp_angle_l	lumbar_extension	lumbar_bending	lumbar_rotation	arm_flex_r	arm_add_r	arm_rot_r	elbow_flex_r	pro_sup_r	wrist_flex_r	wrist_dev_r	arm_flex_l	arm_add_l	arm_rot_l	elbow_flex_l	pro_sup_l	wrist_flex_l	wrist_dev_l
        6.0000000000	        8.1719404300	       -0.3249314700	       -2.5208048400	        0.0808299000	        0.8960410700	       -0.0087268600	      -18.9246004500	        1.7401501000	        2.8737446300	       -8.7837518800	        0.0000000000	        0.0000000000	       17.4815491600	        0.0000000000	        0.0000000000	       11.6812880200	        0.3981310200	       -7.2682560000	       -2.8018787600	        0.0000000000	        0.0000000000	       -5.5254195300	        0.0000000000	        0.0000000000	      -22.4409394900	       -1.9158417600	        7.7250886500	       24.1518289400	      -22.6887363000	       22.4689296400	       26.2111366500	       86.5166270600	        0.0000000000	        0.0000000000	       -0.9637708500	       -9.3946781800	       43.5938966000	        1.9360703000	       85.9436692700	        0.0000000000	        0.0000000000	
        6.0100000000	        8.3702463600	       -0.0069589200	       -2.5146177500	        0.0822740500	        0.8947400700	       -0.0105164500	      -19.5019667100	        1.2440709600	        2.6795678800	       -9.4251083600	        0.0000000000	        0.0000000000	       17.7475894700	        0.0000000000	        0.0000000000	       11.6924438900	        0.8982368100	       -7.2717502000	       -4.0529661200	        0.0000000000	        0.0000000000	       -6.3729803100	        0.0000000000	        0.0000000000	      -22.5408887800	       -2.2060092700	        7.3790982000	       23.5546255500	      -22.3033300400	       22.6172713900	       25.5477838800	       86.5166270600	        0.0000000000	        0.0000000000	       -0.4845271100	       -9.6043439300	       43.9501318300	        1.9611501000	       85.9436692700	        0.0000000000	        0.0000000000	
        6.0200000000	        8.6171448000	        0.4080098300	       -2.4736815200	        0.0836864200	        0.8937231400	       -0.0124729100	      -20.0607872800	        0.6525218300	        2.4180339400	      -10.1844199500	        0.0000000000	        0.0000000000	       17.9369605600	        0.0000000000	        0.0000000000	       11.6764381900	        1.4986202900	       -7.2278782500	       -5.2019499700	        0.0000000000	        0.0000000000	       -7.3123343800	        0.0000000000	        0.0000000000	      -22.7196173200	       -2.5830936700	        6.9720725500	       22.9065932100	      -21.8903678400	       22.6889711000	       24.8851925600	       86.5166270600	        0.0000000000	        0.0000000000	        0.0689004000	       -9.8265808800	       44.3392845700	        2.0039341600	       85.9436692700	        0.0000000000	        0.0000000000	
        6.0300000000	        8.9001395400	        0.9186563500	       -2.4026451000	        0.0849632300	        0.8930950700	       -0.0145595600	      -20.5697264500	       -0.0291942800	        2.0967875300	      -11.0990573300	        0.0000000000	        0.0000000000	       18.0321580100	        0.0000000000	        0.0000000000	       11.6063438500	        2.1875419100	       -7.1513520600	       -6.2956516400	        0.0000000000	        0.0000000000	       -8.2029282100	        0.0000000000	        0.0000000000	      -22.9850634600	       -3.0483549400	        6.5134149600	       22.2085018200	      -21.4483528400	       22.6967942100	       24.2205208400	       86.5166270600	        0.0000000000	        0.0000000000	        0.7075552600	      -10.0562486700	       44.7704908000	        2.0601401400	       85.9436692700	        0.0000000000	        0.0000000000	
        6.0400000000	        9.2050912100	        1.5054572200	       -2.3114386000	        0.0861183700	        0.8928854900	       -0.0167152200	      -20.9973098100	       -0.7796935900	        1.7208188000	      -12.2071738400	        0.0000000000	        0.0000000000	       18.0021944000	        0.0000000000	        0.0000000000	       11.4647067500	        2.9382547400	       -7.0552217900	       -7.4162978500	        0.0000000000	        0.0000000000	       -8.9027899900	        0.0000000000	        0.0000000000	      -23.3227643800	       -3.5834964300	        6.0211952300	       21.4573994500	      -20.9797441600	       22.6826923100	       23.5391005000	       86.5166270600	        0.0000000000	        0.0000000000	        1.4296696200	      -10.2867379600	       45.2446223200	        2.1200365600	       85.9436692700	        0.0000000000	        0.0000000000	
        6.0500000000	        9.5262156400	        2.1317346200	       -2.2140055300	        0.0872707000	        0.8930908900	       -0.0188984700	      -21.3136134100	       -1.5662074500	        1.2932363900	      -13.5500333000	        0.0000000000	        0.0000000000	       17.7985553400	        0.0000000000	        0.0000000000	       11.2655633300	        3.7122658400	       -6.9461514500	       -8.6272212100	        0.0000000000	        0.0000000000	       -9.3009854000	        0.0000000000	        0.0000000000	      -23.6979256100	       -4.1504275800	        5.5203371300	       20.6502146000	      -20.4917440000	       22.7118625800	       22.8172736800	       86.5166270600	        0.0000000000	        0.0000000000	        2.2203534800	      -10.5090808600	       45.7501398400	        2.1717595500	       85.9436692700	        0.0000000000	        0.0000000000	
